<?xml version="1.0" encoding="UTF-8" standalone="no"?>
<svg width="89px" height="23px" viewBox="0 0 89 23" version="1.1" xmlns="http://www.w3.org/2000/svg" xmlns:xlink="http://www.w3.org/1999/xlink">
    <!-- Generator: Sketch 48.2 (47327) - http://www.bohemiancoding.com/sketch -->
    <title>logo--kanguru</title>
    <desc>Created with Sketch.</desc>
    <defs></defs>
    <g id="Page-1" stroke="none" stroke-width="1" fill="none" fill-rule="evenodd">
        <g id="logo--kanguru" transform="translate(-1.000000, -5.000000)" fill="#000000">
            <path d="M1.5937778,5.864 L3.1057778,5.864 L3.1057778,16.616 L9.9697778,10.616 L11.9857778,10.616 L6.7057778,15.2 L12.3457778,23 L10.4497778,23 L5.5537778,16.256 L3.1057778,18.296 L3.1057778,23 L1.5937778,23 L1.5937778,5.864 Z M13.4497778,14.408 C13.497778,13.6879964 13.6497765,13.0640026 13.9057778,12.536 C14.1617791,12.0079974 14.5097756,11.5760017 14.9497778,11.24 C15.38978,10.9039983 15.9057748,10.6560008 16.4977778,10.496 C17.0897808,10.3359992 17.7457742,10.256 18.4657778,10.256 C19.0097805,10.256 19.5537751,10.3079995 20.0977778,10.412 C20.6417805,10.5160005 21.1297756,10.7119986 21.5617778,11 C21.99378,11.2880014 22.3457764,11.6919974 22.6177778,12.212 C22.8897792,12.7320026 23.0257778,13.4079958 23.0257778,14.24 L23.0257778,20.816 C23.0257778,21.424003 23.3217748,21.728 23.9137778,21.728 C24.0897787,21.728 24.2497771,21.6960003 24.3937778,21.632 L24.3937778,22.904 C24.2177769,22.9360002 24.0617785,22.9599999 23.9257778,22.976 C23.7897771,22.9920001 23.6177788,23 23.4097778,23 C23.0257759,23 22.717779,22.9480005 22.4857778,22.844 C22.2537766,22.7399995 22.0737784,22.592001 21.9457778,22.4 C21.8177772,22.207999 21.733778,21.9800013 21.6937778,21.716 C21.6537776,21.4519987 21.6337778,21.1600016 21.6337778,20.84 L21.5857778,20.84 C21.3137764,21.240002 21.0377792,21.5959984 20.7577778,21.908 C20.4777764,22.2200016 20.1657795,22.479999 19.8217778,22.688 C19.4777761,22.896001 19.08578,23.0559994 18.6457778,23.168 C18.2057756,23.2800006 17.6817808,23.336 17.0737778,23.336 C16.4977749,23.336 15.9577803,23.2680007 15.4537778,23.132 C14.9497753,22.9959993 14.5097797,22.7800015 14.1337778,22.484 C13.7577759,22.1879985 13.4617789,21.8120023 13.2457778,21.356 C13.0297767,20.8999977 12.9217778,20.3600031 12.9217778,19.736 C12.9217778,18.8719957 13.1137759,18.1960024 13.4977778,17.708 C13.8817797,17.2199976 14.3897746,16.8480013 15.0217778,16.592 C15.653781,16.3359987 16.3657738,16.1560005 17.1577778,16.052 C17.9497818,15.9479995 18.7537737,15.8480005 19.5697778,15.752 C19.8897794,15.7199998 20.1697766,15.6800002 20.4097778,15.632 C20.649779,15.5839998 20.849777,15.5000006 21.0097778,15.38 C21.1697786,15.2599994 21.2937774,15.096001 21.3817778,14.888 C21.4697782,14.679999 21.5137778,14.4080017 21.5137778,14.072 C21.5137778,13.5599974 21.4297786,13.1400016 21.2617778,12.812 C21.093777,12.4839984 20.8617793,12.224001 20.5657778,12.032 C20.2697763,11.839999 19.9257798,11.7080004 19.5337778,11.636 C19.1417758,11.5639996 18.72178,11.528 18.2737778,11.528 C17.313773,11.528 16.5297808,11.7559977 15.9217778,12.212 C15.3137748,12.6680023 14.993778,13.399995 14.9617778,14.408 L13.4497778,14.408 Z M21.5137778,16.232 L21.4657778,16.232 C21.3697773,16.4080009 21.1857792,16.5359996 20.9137778,16.616 C20.6417764,16.6960004 20.4017788,16.7519998 20.1937778,16.784 C19.5537746,16.8960006 18.8937812,16.9959996 18.2137778,17.084 C17.5337744,17.1720004 16.9137806,17.3039991 16.3537778,17.48 C15.793775,17.6560009 15.3337796,17.9079984 14.9737778,18.236 C14.613776,18.5640016 14.4337778,19.031997 14.4337778,19.64 C14.4337778,20.0240019 14.509777,20.3639985 14.6617778,20.66 C14.8137786,20.9560015 15.0177765,21.2119989 15.2737778,21.428 C15.5297791,21.6440011 15.8257761,21.8079994 16.1617778,21.92 C16.4977795,22.0320006 16.841776,22.088 17.1937778,22.088 C17.7697807,22.088 18.3217752,22.0000009 18.8497778,21.824 C19.3777804,21.6479991 19.8377758,21.3920017 20.2297778,21.056 C20.6217798,20.7199983 20.9337766,20.3120024 21.1657778,19.832 C21.397779,19.3519976 21.5137778,18.808003 21.5137778,18.2 L21.5137778,16.232 Z M26.0257778,10.616 L27.5377778,10.616 L27.5377778,12.752 L27.5857778,12.752 C27.8737792,11.9999962 28.3857741,11.3960023 29.1217778,10.94 C29.8577815,10.4839977 30.6657734,10.256 31.5457778,10.256 C32.4097821,10.256 33.1337749,10.3679989 33.7177778,10.592 C34.3017807,10.8160011 34.769776,11.131998 35.1217778,11.54 C35.4737796,11.948002 35.7217771,12.447997 35.8657778,13.04 C36.0097785,13.632003 36.0817778,14.2959963 36.0817778,15.032 L36.0817778,23 L34.5697778,23 L34.5697778,15.272 C34.5697778,14.7439974 34.5217783,14.2520023 34.4257778,13.796 C34.3297773,13.3399977 34.161779,12.9440017 33.9217778,12.608 C33.6817766,12.2719983 33.3577798,12.008001 32.9497778,11.816 C32.5417758,11.623999 32.0337808,11.528 31.4257778,11.528 C30.8177748,11.528 30.2777802,11.6359989 29.8057778,11.852 C29.3337754,12.0680011 28.9337794,12.3639981 28.6057778,12.74 C28.2777762,13.1160019 28.0217787,13.5639974 27.8377778,14.084 C27.6537769,14.6040026 27.5537779,15.167997 27.5377778,15.776 L27.5377778,23 L26.0257778,23 L26.0257778,10.616 Z M39.8257778,23 L39.8257778,20.456 L41.8417778,20.456 L41.8417778,23 L39.8257778,23 Z" id="kan."></path>
            <path d="M55.076444,21.944 C55.076444,23.9760102 54.6124486,25.495995 53.684444,26.504 C52.7564394,27.512005 51.3004539,28.016 49.316444,28.016 C48.7404411,28.016 48.152447,27.9520006 47.552444,27.824 C46.952441,27.6959994 46.4084464,27.4880014 45.920444,27.2 C45.4324416,26.9119986 45.0284456,26.5360023 44.708444,26.072 C44.3884424,25.6079977 44.2124442,25.0400034 44.180444,24.368 L46.220444,24.368 C46.2364441,24.7360018 46.3524429,25.0479987 46.568444,25.304 C46.7844451,25.5600013 47.0484424,25.7679992 47.360444,25.928 C47.6724456,26.0880008 48.0124422,26.2039996 48.380444,26.276 C48.7484458,26.3480004 49.1004423,26.384 49.436444,26.384 C50.1084474,26.384 50.6764417,26.2680012 51.140444,26.036 C51.6044463,25.8039988 51.9884425,25.484002 52.292444,25.076 C52.5964455,24.667998 52.8164433,24.1760029 52.952444,23.6 C53.0884447,23.0239971 53.156444,22.3920034 53.156444,21.704 L53.156444,20.888 L53.108444,20.888 C52.7564422,21.6560038 52.2244476,22.2199982 51.512444,22.58 C50.8004404,22.9400018 50.044448,23.12 49.244444,23.12 C48.3164394,23.12 47.5084474,22.9520017 46.820444,22.616 C46.1324406,22.2799983 45.5564463,21.8280028 45.092444,21.26 C44.6284417,20.6919972 44.2804452,20.0280038 44.048444,19.268 C43.8164428,18.5079962 43.700444,17.7040042 43.700444,16.856 C43.700444,16.1199963 43.796443,15.3640039 43.988444,14.588 C44.180445,13.8119961 44.5004418,13.1080032 44.948444,12.476 C45.3964462,11.8439968 45.9884403,11.324002 46.724444,10.916 C47.4604477,10.507998 48.3644386,10.304 49.436444,10.304 C50.2204479,10.304 50.9404407,10.4759983 51.596444,10.82 C52.2524473,11.1640017 52.7644422,11.6799966 53.132444,12.368 L53.156444,12.368 L53.156444,10.592 L55.076444,10.592 L55.076444,21.944 Z M49.364444,21.344 C50.0364474,21.344 50.6084416,21.2040014 51.080444,20.924 C51.5524464,20.6439986 51.9324426,20.2760023 52.220444,19.82 C52.5084454,19.3639977 52.7204433,18.8480029 52.856444,18.272 C52.9924447,17.6959971 53.060444,17.1200029 53.060444,16.544 C53.060444,15.9999973 52.9964446,15.4640026 52.868444,14.936 C52.7404434,14.4079974 52.5364454,13.9320021 52.256444,13.508 C51.9764426,13.0839979 51.6124462,12.7440013 51.164444,12.488 C50.7164418,12.2319987 50.1724472,12.104 49.532444,12.104 C48.8764407,12.104 48.3164463,12.2279988 47.852444,12.476 C47.3884417,12.7240012 47.0084455,13.0559979 46.712444,13.472 C46.4164425,13.8880021 46.2004447,14.3679973 46.064444,14.912 C45.9284433,15.4560027 45.860444,16.023997 45.860444,16.616 C45.860444,17.1760028 45.9164434,17.7359972 46.028444,18.296 C46.1404446,18.8560028 46.3324426,19.3639977 46.604444,19.82 C46.8764454,20.2760023 47.2364418,20.6439986 47.684444,20.924 C48.1324462,21.2040014 48.6924406,21.344 49.364444,21.344 Z M68.420444,23 L66.500444,23 L66.500444,21.032 L66.452444,21.032 C66.0204418,21.8000038 65.4684474,22.3639982 64.796444,22.724 C64.1244406,23.0840018 63.3324486,23.264 62.420444,23.264 C61.6044399,23.264 60.9244467,23.1560011 60.380444,22.94 C59.8364413,22.7239989 59.3964457,22.416002 59.060444,22.016 C58.7244423,21.615998 58.4884447,21.1400028 58.352444,20.588 C58.2164433,20.0359972 58.148444,19.4240034 58.148444,18.752 L58.148444,10.592 L60.188444,10.592 L60.188444,18.992 C60.188444,19.7600038 60.4124418,20.3679978 60.860444,20.816 C61.3084462,21.2640022 61.9244401,21.488 62.708444,21.488 C63.3324471,21.488 63.8724417,21.392001 64.328444,21.2 C64.7844463,21.007999 65.1644425,20.7360018 65.468444,20.384 C65.7724455,20.0319982 66.0004432,19.6200024 66.152444,19.148 C66.3044448,18.6759976 66.380444,18.1600028 66.380444,17.6 L66.380444,10.592 L68.420444,10.592 L68.420444,23 Z M71.420444,10.592 L73.340444,10.592 L73.340444,13.208 L73.388444,13.208 C73.8844465,12.199995 74.4924404,11.4560024 75.212444,10.976 C75.9324476,10.4959976 76.8444385,10.2719998 77.948444,10.304 L77.948444,12.464 C77.1324399,12.464 76.4364469,12.5759989 75.860444,12.8 C75.2844411,13.0240011 74.8204458,13.3519978 74.468444,13.784 C74.1164422,14.2160022 73.8604448,14.7399969 73.700444,15.356 C73.5404432,15.9720031 73.460444,16.679996 73.460444,17.48 L73.460444,23 L71.420444,23 L71.420444,10.592 Z M89.756444,23 L87.836444,23 L87.836444,21.032 L87.788444,21.032 C87.3564418,21.8000038 86.8044474,22.3639982 86.132444,22.724 C85.4604406,23.0840018 84.6684486,23.264 83.756444,23.264 C82.9404399,23.264 82.2604467,23.1560011 81.716444,22.94 C81.1724413,22.7239989 80.7324457,22.416002 80.396444,22.016 C80.0604423,21.615998 79.8244447,21.1400028 79.688444,20.588 C79.5524433,20.0359972 79.484444,19.4240034 79.484444,18.752 L79.484444,10.592 L81.524444,10.592 L81.524444,18.992 C81.524444,19.7600038 81.7484418,20.3679978 82.196444,20.816 C82.6444462,21.2640022 83.2604401,21.488 84.044444,21.488 C84.6684471,21.488 85.2084417,21.392001 85.664444,21.2 C86.1204463,21.007999 86.5004425,20.7360018 86.804444,20.384 C87.1084455,20.0319982 87.3364432,19.6200024 87.488444,19.148 C87.6404448,18.6759976 87.716444,18.1600028 87.716444,17.6 L87.716444,10.592 L89.756444,10.592 L89.756444,23 Z" id="guru"></path>
        </g>
    </g>
</svg>